<svg width="32" height="32" viewBox="0 0 32 32" fill="none" xmlns="http://www.w3.org/2000/svg">
  <rect width="32" height="32" rx="6" fill="#1a1a1a"/>
  <path d="M16 7C11.584 7 8 10.584 8 15c0 3.536 2.296 6.536 5.472 7.592.4.072.544-.176.544-.392 0-.192-.008-.832-.008-1.512-2.016.376-2.544-.48-2.704-.928-.088-.224-.472-.928-.808-1.12-.272-.144-.664-.496-.008-.504.616-.008 1.056.568 1.2.8.704 1.184 1.832.848 2.288.648.072-.504.272-.848.496-1.04-1.736-.192-3.552-.872-3.552-3.872 0-.856.304-1.56.8-2.112-.08-.192-.352-.976.08-2.032 0 0 .656-.208 2.16.8.624-.176 1.296-.264 1.96-.264.664 0 1.336.088 1.96.264 1.504-1.016 2.16-.8 2.16-.8.432 1.056.16 1.84.08 2.032.496.552.8 1.248.8 2.112 0 3.008-1.824 3.68-3.568 3.872.288.248.536.728.536 1.472 0 1.04-.008 1.88-.008 2.144 0 .216.144.472.544.392A8.013 8.013 0 0024 15c0-4.416-3.584-8-8-8z" fill="white"/>
</svg> 